<?xml version="1.0" ?><!DOCTYPE svg  PUBLIC '-//W3C//DTD SVG 1.1//EN'  'http://www.w3.org/Graphics/SVG/1.1/DTD/svg11.dtd'><svg enable-background="new 0 0 24 24" height="24px" id="Layer_1" version="1.1" viewBox="0 0 24 24" width="24px" xml:space="preserve" xmlns="http://www.w3.org/2000/svg" xmlns:xlink="http://www.w3.org/1999/xlink"><g id="icon"><circle cx="12" cy="12" fill="#47647C" r="11"/><path d="M10.6669,5.6352c-0.081,0.6568,-0.2311,1.1935,-0.4471,1.6185c-0.2156,0.4256,-0.4996,0.7925,-0.8565,1.0958c-0.3563,0.3037,-0.7845,0.5364,-1.2847,0.699v1.8011h1.4106v4.465c0,0.5816,0.0607,1.0288,0.1826,1.3351c0.1217,0.3067,0.339,0.5966,0.6549,0.8691c0.0584,0.0502,0.1197,0.0925,0.1826,0.1385c0.0702,0.0513,0.1447,0.0988,0.2204,0.1448c0.0596,0.0362,0.1196,0.0741,0.1826,0.1071c0.049,0.0259,0.1,0.0517,0.1511,0.0756c0.0433,0.0199,0.0875,0.0382,0.1323,0.0567c0.0895,0.0375,0.1814,0.0756,0.2771,0.1071c0.447,0.1469,0.9609,0.2204,1.5429,0.2204c0.1282,0,0.2541,-0.0061,0.3778,-0.0126c0.2474,-0.0129,0.4821,-0.0369,0.7116,-0.0756c0.1148,-0.0193,0.2297,-0.0435,0.3401,-0.0693c0.2204,-0.0516,0.4527,-0.1241,0.699,-0.2141c0.2463,-0.09,0.5087,-0.1993,0.7809,-0.3275v-1.2217v-0.7809c-0.6378,0.4192,-1.2826,0.6235,-1.927,0.6235c-0.3627,0,-0.6818,-0.083,-0.9635,-0.2519c-0.2124,-0.1251,-0.3628,-0.2944,-0.4408,-0.5038c-0.0786,-0.2098,-0.1134,-0.679,-0.1134,-1.4169v-3.2684h3.0228V8.8532h-3.0228v-3.218L10.6669,5.6352L10.6669,5.6352z" fill="#FFFFFF"/><path d="M4.2218,19.7782C6.2124,21.7688,8.9624,23,12,23c6.0751,0,11,-4.9249,11,-11c0,-3.0376,-1.2312,-5.7876,-3.2218,-7.7782L4.2218,19.7782z" fill="#231F20" opacity="0.1"/></g></svg>